<?xml version="1.0" encoding="UTF-8" standalone="no"?>
<svg
   xmlns:dc="http://purl.org/dc/elements/1.1/"
   xmlns:cc="http://creativecommons.org/ns#"
   xmlns:rdf="http://www.w3.org/1999/02/22-rdf-syntax-ns#"
   xmlns:svg="http://www.w3.org/2000/svg"
   xmlns="http://www.w3.org/2000/svg"
   viewBox="0 0 1122.6667 793.33331"
   height="793.33331"
   width="1122.6667"
   xml:space="preserve"
   id="svg2"
   version="1.1"><metadata
     id="metadata8"><rdf:RDF><cc:Work
         rdf:about=""><dc:format>image/svg+xml</dc:format><dc:type
           rdf:resource="http://purl.org/dc/dcmitype/StillImage" /></cc:Work></rdf:RDF></metadata><defs
     id="defs6"><clipPath
       id="clipPath18"
       clipPathUnits="userSpaceOnUse"><path
         id="path16"
         d="M 4066,3587 H 5978 V 9024 H 4066 V 3587" /></clipPath><clipPath
       id="clipPath82"
       clipPathUnits="userSpaceOnUse"><path
         id="path80"
         d="M 7424,1520 H 9335 V 6957 H 7424 V 1520" /></clipPath><clipPath
       id="clipPath146"
       clipPathUnits="userSpaceOnUse"><path
         id="path144"
         d="M 0,0 H 14031 V 9921 H 0 V 0" /></clipPath><clipPath
       id="clipPath154"
       clipPathUnits="userSpaceOnUse"><path
         id="path152"
         d="M 0,0 H 14031 V 9921 H 0 V 0" /></clipPath><clipPath
       id="clipPath166"
       clipPathUnits="userSpaceOnUse"><path
         id="path164"
         d="M 0,0 H 14031 V 9921 H 0 V 0" /></clipPath></defs><g
     transform="matrix(0.08,0,0,-0.08,0,793.33333)"
     id="g10"><g
       id="g12"><g
         clip-path="url(#clipPath18)"
         id="g14"><path
           id="path20"
           style="fill:none;stroke:#000000;stroke-width:17;stroke-linecap:round;stroke-linejoin:round;stroke-miterlimit:10;stroke-dasharray:none;stroke-opacity:1"
           d="m 4632.2358,6924.4038 c -10.5605,-76.3706 46.9209,-150.606 152.6245,-197.1094 105.7037,-46.5039 245.169,-58.914 370.3091,-32.9521" /><path
           id="path22"
           style="fill:none;stroke:#000000;stroke-width:17;stroke-linecap:round;stroke-linejoin:round;stroke-miterlimit:10;stroke-dasharray:none;stroke-opacity:1"
           d="m 5053,6055 1,13 2,13 2,13 2,12 1,13 2,12 2,13 2,12 1,12 2,12 2,12 1,12 2,11 2,12 1,12 2,11 2,11 1,12 2,11 2,11 1,11 2,11 2,10 1,11 2,11 2,10 1,10 2,11 1,10 2,10 2,10 1,10 2,10 1,10 2,9 1,10 2,9 2,10 1,9 2,9 1,10 2,9 1,9 2,9 1,8 2,9 1,9 2,8 3,17 3,17 3,16 3,16 3,16 3,15 3,15 3,15" /><path
           id="path24"
           style="fill:none;stroke:#000000;stroke-width:17;stroke-linecap:round;stroke-linejoin:round;stroke-miterlimit:10;stroke-dasharray:none;stroke-opacity:1"
           d="m 5391,6829 3,-11 3,-11 3,-12 3,-12 3,-13 3,-13 3,-13 3,-13 1,-7 2,-7 1,-7 2,-7 1,-7 2,-8 1,-7 2,-7 1,-8 2,-7 2,-8 1,-8 2,-7 1,-8 2,-8 1,-8 2,-8 2,-9 1,-8 2,-8 1,-9 2,-8 2,-9 1,-9 2,-8 1,-9 2,-9 2,-9 1,-9 2,-10 2,-9 1,-9 2,-10 2,-9 1,-10 2,-10 2,-10 1,-10 2,-10 2,-10 2,-10 1,-10 2,-11 2,-10 2,-11 1,-11 2,-10 2,-11" /><g
           transform="rotate(180,2511.25,3453.25)"
           id="g26"><path
             id="path28"
             style="fill:none;stroke:#000000;stroke-width:17;stroke-linecap:round;stroke-linejoin:round;stroke-miterlimit:10;stroke-dasharray:none;stroke-opacity:1"
             d="M -368.33548,76.41632 C -387.21036,46.23273 -394.68634,14.07681 -390.2641,-17.90374" /></g><g
           transform="rotate(180,2511.25,2576.25)"
           id="g30"><path
             id="path32"
             style="fill:none;stroke:#000000;stroke-width:17;stroke-linecap:round;stroke-linejoin:round;stroke-miterlimit:10;stroke-dasharray:none;stroke-opacity:1"
             d="m 631.50012,-28.93974 c 18.92505,136.71538 -97.1289,267.97099 -300.32812,339.66743 -203.19923,71.69641 -459.14477,71.69641 -662.344,0 -203.19922,-71.69644 -319.25317,-202.95205 -300.32812,-339.66743" /></g><g
           transform="rotate(180,2511.25,4095.25)"
           id="g34"><path
             id="path36"
             style="fill:none;stroke:#000000;stroke-width:17;stroke-linecap:round;stroke-linejoin:round;stroke-miterlimit:10;stroke-dasharray:none;stroke-opacity:1"
             d="m 214.40527,-3.66999 c 2.32247,44.97784 -38.0274,87.12333 -105.32023,110.00713 -67.29282,22.88381 -150.87726,22.88381 -218.17008,0 -67.29283,-22.8838 -107.6427,-65.02929 -105.32023,-110.00713" /></g><g
           transform="rotate(180,2511.25,2101.25)"
           id="g38"><path
             id="path40"
             style="fill:none;stroke:#000000;stroke-width:17;stroke-linecap:round;stroke-linejoin:round;stroke-miterlimit:10;stroke-dasharray:none;stroke-opacity:1"
             d="m 799.23627,-47.58291 c 31.57245,175.70486 -113.48352,346.41689 -373.82221,439.94033 -260.3387,93.52344 -590.48942,93.52344 -850.82812,0 -260.33869,-93.52344 -405.39466,-264.23547 -373.82221,-439.94033" /></g><g
           transform="rotate(180,2511.25,4344.75)"
           id="g42"><path
             id="path44"
             style="fill:none;stroke:#000000;stroke-width:9;stroke-linecap:round;stroke-linejoin:round;stroke-miterlimit:10;stroke-dasharray:none;stroke-opacity:1"
             d="m 188.41675,-3.22424 c 2.04095,39.51494 -33.41802,76.54155 -92.55413,96.64594 -59.13612,20.1044 -132.58912,20.1044 -191.72524,0 -59.13611,-20.10439 -94.59508,-57.131 -92.55413,-96.64594" /></g><path
           id="path46"
           style="fill:none;stroke:#000000;stroke-width:17;stroke-linecap:round;stroke-linejoin:round;stroke-miterlimit:10;stroke-dasharray:none;stroke-opacity:1"
           d="m 5391,6829 216,125 -216,124" /><path
           id="path48"
           style="fill:none;stroke:#000000;stroke-width:17;stroke-linecap:round;stroke-linejoin:round;stroke-miterlimit:10;stroke-dasharray:none;stroke-opacity:1"
           d="m 4638,6974 -201,-116 501,-289 217,125" /><path
           id="path50"
           style="fill:none;stroke:#000000;stroke-width:17;stroke-linecap:round;stroke-linejoin:round;stroke-miterlimit:10;stroke-dasharray:none;stroke-opacity:1"
           d="m 5607,6954 v -580 l -114,-65" /><path
           id="path52"
           style="fill:none;stroke:#000000;stroke-width:17;stroke-linecap:round;stroke-linejoin:round;stroke-miterlimit:10;stroke-dasharray:none;stroke-opacity:1"
           d="m 4938,6569 v -579 l 115,65" /><path
           id="path54"
           style="fill:none;stroke:#000000;stroke-width:17;stroke-linecap:round;stroke-linejoin:round;stroke-miterlimit:10;stroke-dasharray:none;stroke-opacity:1"
           d="m 4437,6858 v -580 l 501,-288" /><path
           id="path56"
           style="fill:none;stroke:#000000;stroke-width:17;stroke-linecap:round;stroke-linejoin:round;stroke-miterlimit:10;stroke-dasharray:none;stroke-opacity:1"
           d="M 5237,8197 5413,6924" /><path
           id="path58"
           style="fill:none;stroke:#000000;stroke-width:17;stroke-linecap:round;stroke-linejoin:round;stroke-miterlimit:10;stroke-dasharray:none;stroke-opacity:1"
           d="M 5497,6311 5654,5181" /><path
           id="path60"
           style="fill:none;stroke:#000000;stroke-width:17;stroke-linecap:round;stroke-linejoin:round;stroke-miterlimit:10;stroke-dasharray:none;stroke-opacity:1"
           d="M 4807,8197 4631,6924" /><path
           id="path62"
           style="fill:none;stroke:#000000;stroke-width:17;stroke-linecap:round;stroke-linejoin:round;stroke-miterlimit:10;stroke-dasharray:none;stroke-opacity:1"
           d="M 4534,6222 4390,5181" /><path
           id="path64"
           style="fill:none;stroke:#000000;stroke-width:17;stroke-linecap:round;stroke-linejoin:round;stroke-miterlimit:10;stroke-dasharray:none;stroke-opacity:1"
           d="m 5653,5186 169,-937" /><path
           id="path66"
           style="fill:none;stroke:#000000;stroke-width:17;stroke-linecap:round;stroke-linejoin:round;stroke-miterlimit:10;stroke-dasharray:none;stroke-opacity:1"
           d="M 4391,5186 4222,4249" /><path
           id="path68"
           style="fill:none;stroke:#000000;stroke-width:17;stroke-linecap:round;stroke-linejoin:round;stroke-miterlimit:10;stroke-dasharray:none;stroke-opacity:1"
           d="m 5211,8693 26,-499" /><path
           id="path70"
           style="fill:none;stroke:#000000;stroke-width:17;stroke-linecap:round;stroke-linejoin:round;stroke-miterlimit:10;stroke-dasharray:none;stroke-opacity:1"
           d="m 4833,8693 -26,-499" /><g
           transform="rotate(-92.955481,6634.6237,1956.8074)"
           id="g72"><path
             id="path74"
             style="fill:none;stroke:#000000;stroke-width:17;stroke-linecap:round;stroke-linejoin:round;stroke-miterlimit:10;stroke-dasharray:none;stroke-opacity:1"
             d="M -19.5142,188.49257 C -119.83887,178.10617 -194.44807,90.95664 -189.24797,-9.7701 -184.04787,-110.49683 -100.86088,-189.5 0,-189.5" /></g></g></g><g
       id="g76"><g
         clip-path="url(#clipPath82)"
         id="g78"><path
           id="path84"
           style="fill:none;stroke:#000000;stroke-width:17;stroke-linecap:round;stroke-linejoin:round;stroke-miterlimit:10;stroke-dasharray:none;stroke-opacity:1"
           d="m 7989.2358,4857.4038 c -10.5605,-76.3706 46.9209,-150.606 152.6245,-197.1094 105.7042,-46.5039 245.169,-58.914 370.3096,-32.9521" /><path
           id="path86"
           style="fill:none;stroke:#000000;stroke-width:17;stroke-linecap:round;stroke-linejoin:round;stroke-miterlimit:10;stroke-dasharray:none;stroke-opacity:1"
           d="m 8410,3988 2,13 2,13 1,13 2,12 2,13 2,12 1,13 2,12 2,12 1,12 2,12 2,12 2,11 1,12 2,12 2,11 1,11 2,12 2,11 1,11 2,11 1,11 2,10 2,11 1,11 2,10 2,10 1,11 2,10 1,10 2,10 2,10 1,10 2,10 1,9 2,10 1,9 2,10 2,9 1,9 2,10 1,9 2,9 1,9 2,8 1,9 2,9 1,8 3,17 3,17 3,16 3,16 3,16 3,15 3,15 3,15" /><path
           id="path88"
           style="fill:none;stroke:#000000;stroke-width:17;stroke-linecap:round;stroke-linejoin:round;stroke-miterlimit:10;stroke-dasharray:none;stroke-opacity:1"
           d="m 8748,4762 3,-11 3,-11 3,-12 3,-12 3,-13 3,-13 3,-13 3,-13 1,-7 2,-7 1,-7 2,-7 2,-7 1,-8 2,-7 1,-7 2,-8 1,-7 2,-8 1,-8 2,-7 2,-8 1,-8 2,-8 1,-8 2,-9 1,-8 2,-8 2,-9 1,-8 2,-9 2,-9 1,-8 2,-9 1,-9 2,-9 2,-9 1,-10 2,-9 2,-9 1,-10 2,-9 2,-10 1,-10 2,-10 2,-10 1,-10 2,-10 2,-10 2,-10 1,-11 2,-10 2,-11 2,-11 1,-10 2,-11" /><g
           transform="rotate(180,4189.75,2419.75)"
           id="g90"><path
             id="path92"
             style="fill:none;stroke:#000000;stroke-width:17;stroke-linecap:round;stroke-linejoin:round;stroke-miterlimit:10;stroke-dasharray:none;stroke-opacity:1"
             d="M -368.33548,76.41632 C -387.21036,46.23273 -394.68634,14.07681 -390.2641,-17.90374" /></g><g
           transform="rotate(180,4189.75,1542.75)"
           id="g94"><path
             id="path96"
             style="fill:none;stroke:#000000;stroke-width:17;stroke-linecap:round;stroke-linejoin:round;stroke-miterlimit:10;stroke-dasharray:none;stroke-opacity:1"
             d="m 631.50012,-28.93974 c 18.92505,136.71538 -97.1289,267.97099 -300.32812,339.66743 -203.19923,71.69641 -459.14477,71.69641 -662.344,0 -203.19922,-71.69644 -319.25317,-202.95205 -300.32812,-339.66743" /></g><g
           transform="rotate(180,4189.75,3061.75)"
           id="g98"><path
             id="path100"
             style="fill:none;stroke:#000000;stroke-width:17;stroke-linecap:round;stroke-linejoin:round;stroke-miterlimit:10;stroke-dasharray:none;stroke-opacity:1"
             d="m 214.40527,-3.66999 c 2.32247,44.97784 -38.0274,87.12333 -105.32023,110.00713 -67.29282,22.88381 -150.87726,22.88381 -218.17008,0 -67.29283,-22.8838 -107.6427,-65.02929 -105.32023,-110.00713" /></g><g
           transform="rotate(180,4189.75,1067.75)"
           id="g102"><path
             id="path104"
             style="fill:none;stroke:#000000;stroke-width:17;stroke-linecap:round;stroke-linejoin:round;stroke-miterlimit:10;stroke-dasharray:none;stroke-opacity:1"
             d="m 799.23627,-47.58291 c 31.57245,175.70486 -113.48352,346.41689 -373.82221,439.94033 -260.3387,93.52344 -590.48942,93.52344 -850.82812,0 -260.33869,-93.52344 -405.39466,-264.23547 -373.82221,-439.94033" /></g><g
           transform="rotate(180,4189.75,3311.25)"
           id="g106"><path
             id="path108"
             style="fill:none;stroke:#000000;stroke-width:9;stroke-linecap:round;stroke-linejoin:round;stroke-miterlimit:10;stroke-dasharray:none;stroke-opacity:1"
             d="m 188.41675,-3.22424 c 2.04095,39.51494 -33.41802,76.54155 -92.55413,96.64594 -59.13612,20.1044 -132.58912,20.1044 -191.72524,0 -59.13611,-20.10439 -94.59508,-57.131 -92.55413,-96.64594" /></g><path
           id="path110"
           style="fill:none;stroke:#000000;stroke-width:17;stroke-linecap:round;stroke-linejoin:round;stroke-miterlimit:10;stroke-dasharray:none;stroke-opacity:1"
           d="m 8748,4762 216,125 -215,124" /><path
           id="path112"
           style="fill:none;stroke:#000000;stroke-width:17;stroke-linecap:round;stroke-linejoin:round;stroke-miterlimit:10;stroke-dasharray:none;stroke-opacity:1"
           d="m 7996,4907 -201,-116 501,-289 216,125" /><path
           id="path114"
           style="fill:none;stroke:#000000;stroke-width:17;stroke-linecap:round;stroke-linejoin:round;stroke-miterlimit:10;stroke-dasharray:none;stroke-opacity:1"
           d="m 8964,4887 v -580 l -114,-65" /><path
           id="path116"
           style="fill:none;stroke:#000000;stroke-width:17;stroke-linecap:round;stroke-linejoin:round;stroke-miterlimit:10;stroke-dasharray:none;stroke-opacity:1"
           d="m 8296,4502 v -579 l 114,65" /><path
           id="path118"
           style="fill:none;stroke:#000000;stroke-width:17;stroke-linecap:round;stroke-linejoin:round;stroke-miterlimit:10;stroke-dasharray:none;stroke-opacity:1"
           d="m 7795,4791 v -580 l 501,-288" /><path
           id="path120"
           style="fill:none;stroke:#000000;stroke-width:17;stroke-linecap:round;stroke-linejoin:round;stroke-miterlimit:10;stroke-dasharray:none;stroke-opacity:1"
           d="M 8594,6130 8770,4857" /><path
           id="path122"
           style="fill:none;stroke:#000000;stroke-width:17;stroke-linecap:round;stroke-linejoin:round;stroke-miterlimit:10;stroke-dasharray:none;stroke-opacity:1"
           d="M 8855,4244 9011,3114" /><path
           id="path124"
           style="fill:none;stroke:#000000;stroke-width:17;stroke-linecap:round;stroke-linejoin:round;stroke-miterlimit:10;stroke-dasharray:none;stroke-opacity:1"
           d="M 8165,6130 7989,4857" /><path
           id="path126"
           style="fill:none;stroke:#000000;stroke-width:17;stroke-linecap:round;stroke-linejoin:round;stroke-miterlimit:10;stroke-dasharray:none;stroke-opacity:1"
           d="M 7892,4155 7748,3114" /><path
           id="path128"
           style="fill:none;stroke:#000000;stroke-width:17;stroke-linecap:round;stroke-linejoin:round;stroke-miterlimit:10;stroke-dasharray:none;stroke-opacity:1"
           d="m 9010,3119 169,-937" /><path
           id="path130"
           style="fill:none;stroke:#000000;stroke-width:17;stroke-linecap:round;stroke-linejoin:round;stroke-miterlimit:10;stroke-dasharray:none;stroke-opacity:1"
           d="M 7749,3119 7580,2182" /><path
           id="path132"
           style="fill:none;stroke:#000000;stroke-width:17;stroke-linecap:round;stroke-linejoin:round;stroke-miterlimit:10;stroke-dasharray:none;stroke-opacity:1"
           d="m 8568,6626 26,-499" /><path
           id="path134"
           style="fill:none;stroke:#000000;stroke-width:17;stroke-linecap:round;stroke-linejoin:round;stroke-miterlimit:10;stroke-dasharray:none;stroke-opacity:1"
           d="m 8191,6626 -26,-499" /><g
           transform="rotate(-92.955481,7331.6052,-670.76933)"
           id="g136"><path
             id="path138"
             style="fill:none;stroke:#000000;stroke-width:17;stroke-linecap:round;stroke-linejoin:round;stroke-miterlimit:10;stroke-dasharray:none;stroke-opacity:1"
             d="M -19.5142,188.49257 C -119.83887,178.10617 -194.44807,90.95664 -189.24797,-9.7701 -184.04787,-110.49683 -100.86088,-189.5 0,-189.5" /></g></g></g><g
       id="g140"><g
         clip-path="url(#clipPath146)"
         id="g142" /></g><g
       id="g148"><g
         clip-path="url(#clipPath154)"
         id="g150"><text
           id="text158"
           style="font-variant:normal;font-weight:normal;font-size:329.99099731px;font-family:Arial;-inkscape-font-specification:ArialMT;writing-mode:lr-tb;fill:#000000;fill-opacity:1;fill-rule:nonzero;stroke:none"
           transform="matrix(1,0,0,-1,5968,7304)"><tspan
             id="tspan156"
             y="0"
             x="0 220.104 329.991 568.24451 733.23999 916.71503 1008.4525 1100.1899 1338.4435 1430.181">ID: n*4+1</tspan></text>
</g></g><g
       id="g160"><g
         clip-path="url(#clipPath166)"
         id="g162"><path
           id="path168"
           style="fill:none;stroke:#000000;stroke-width:9;stroke-linecap:round;stroke-linejoin:round;stroke-miterlimit:10;stroke-dasharray:none;stroke-opacity:1"
           d="m 5606,6954 254,303 h 108 1597" /><text
           id="text172"
           style="font-variant:normal;font-weight:normal;font-size:329.99099731px;font-family:Arial;-inkscape-font-specification:ArialMT;writing-mode:lr-tb;fill:#000000;fill-opacity:1;fill-rule:nonzero;stroke:none"
           transform="matrix(1,0,0,-1,2300,6074)"><tspan
             id="tspan170"
             y="0"
             x="0 220.104 329.991 568.24451 733.23999 916.71503 1008.4525 1100.1899 1338.4435 1430.181">ID: n*4</tspan></text>
<g
           id="g174"><path
             id="path176"
             style="fill:#000000;fill-opacity:1;fill-rule:nonzero;stroke:#000000;stroke-width:12.5;stroke-linecap:round;stroke-linejoin:miter;stroke-miterlimit:10;stroke-dasharray:none;stroke-opacity:1"
             d="m 4215,6190 222,88 -182,-155 z" /></g><path
           id="path178"
           style="fill:none;stroke:#000000;stroke-width:9;stroke-linecap:round;stroke-linejoin:round;stroke-miterlimit:10;stroke-dasharray:none;stroke-opacity:1"
           d="M 4235,6156 4019,6027 H 3898 2300" /><text
           id="text182"
           style="font-variant:normal;font-weight:normal;font-size:329.99099731px;font-family:Arial;-inkscape-font-specification:ArialMT;writing-mode:lr-tb;fill:#000000;fill-opacity:1;fill-rule:nonzero;stroke:none"
           transform="matrix(1,0,0,-1,6042,5376)"><tspan
             id="tspan180"
             y="0"
             x="0 220.104 329.991 568.24451 733.23999 916.71503 1008.4525 1100.1899 1338.4435 1430.181">ID: n*4+2</tspan></text>
<g
           id="g184"><path
             id="path186"
             style="fill:#000000;fill-opacity:1;fill-rule:nonzero;stroke:#000000;stroke-width:12.5;stroke-linecap:round;stroke-linejoin:miter;stroke-miterlimit:10;stroke-dasharray:none;stroke-opacity:1"
             d="m 7764,5028 31,-238 -107,215 z" /></g><path
           id="path188"
           style="fill:none;stroke:#000000;stroke-width:9;stroke-linecap:round;stroke-linejoin:round;stroke-miterlimit:10;stroke-dasharray:none;stroke-opacity:1"
           d="m 7726,5016 -95,313 h -35 -1554" /><text
           id="text192"
           style="font-variant:normal;font-weight:normal;font-size:329.99099731px;font-family:Arial;-inkscape-font-specification:ArialMT;writing-mode:lr-tb;fill:#000000;fill-opacity:1;fill-rule:nonzero;stroke:none"
           transform="matrix(1,0,0,-1,9831,3871)"><tspan
             id="tspan190"
             y="0"
             x="0 220.104 329.991 568.24451 733.23999 916.71503 1008.4525 1100.1899 1338.4435 1430.181">ID: n*4+3</tspan></text>
<g
           id="g194"><path
             id="path196"
             style="fill:#000000;fill-opacity:1;fill-rule:nonzero;stroke:#000000;stroke-width:12.5;stroke-linecap:round;stroke-linejoin:miter;stroke-miterlimit:10;stroke-dasharray:none;stroke-opacity:1"
             d="m 9127,4132 -163,175 211,-112 z" /></g><path
           id="path198"
           style="fill:none;stroke:#000000;stroke-width:9;stroke-linecap:round;stroke-linejoin:round;stroke-miterlimit:10;stroke-dasharray:none;stroke-opacity:1"
           d="m 9151,4164 444,-340 h 236 1599" /><path
           id="path200"
           style="fill:none;stroke:#000000;stroke-width:9;stroke-linecap:round;stroke-linejoin:round;stroke-miterlimit:10;stroke-dasharray:none;stroke-opacity:1"
           d="M 4947,4082 4244,2944" /><path
           id="path202"
           style="fill:none;stroke:#000000;stroke-width:9;stroke-linecap:round;stroke-linejoin:round;stroke-miterlimit:10;stroke-dasharray:none;stroke-opacity:1"
           d="M 8290,2016 7587,878" /><path
           id="path204"
           style="fill:none;stroke:#000000;stroke-width:9;stroke-linecap:round;stroke-linejoin:round;stroke-miterlimit:10;stroke-dasharray:none;stroke-opacity:1"
           d="M 4520,2940 7461,1123" /><g
           id="g206"><path
             id="path208"
             style="fill:#000000;fill-opacity:1;fill-rule:nonzero;stroke:#000000;stroke-width:12.5;stroke-linecap:round;stroke-linejoin:miter;stroke-miterlimit:10;stroke-dasharray:none;stroke-opacity:1"
             d="m 4541,2974 -42,-67 -180,157 z" /></g><g
           id="g210"><path
             id="path212"
             style="fill:#000000;fill-opacity:1;fill-rule:nonzero;stroke:#000000;stroke-width:12.5;stroke-linecap:round;stroke-linejoin:miter;stroke-miterlimit:10;stroke-dasharray:none;stroke-opacity:1"
             d="m 7482,1157 -42,-67 222,-91 z" /></g><path
           id="path214"
           style="fill:none;stroke:#000000;stroke-width:9;stroke-linecap:round;stroke-linejoin:round;stroke-miterlimit:10;stroke-dasharray:none;stroke-opacity:1"
           d="m 5707,2291 625,-386" /><text
           id="text218"
           style="font-variant:normal;font-weight:normal;font-size:329.99105835px;font-family:Arial;-inkscape-font-specification:ArialMT;writing-mode:lr-tb;fill:#000000;fill-opacity:1;fill-rule:nonzero;stroke:none"
           transform="matrix(0.8508,-0.52549,-0.52549,-0.8508,5744,2350)"><tspan
             id="tspan216"
             y="0"
             x="0 183.47504 366.95007 550.42511">1000</tspan></text>
</g></g></g></svg>