<?xml version="1.0" encoding="UTF-8" standalone="no"?>
<svg
   xmlns:dc="http://purl.org/dc/elements/1.1/"
   xmlns:cc="http://creativecommons.org/ns#"
   xmlns:rdf="http://www.w3.org/1999/02/22-rdf-syntax-ns#"
   xmlns:svg="http://www.w3.org/2000/svg"
   xmlns="http://www.w3.org/2000/svg"
   viewBox="0 0 1122.6667 793.33331"
   height="793.33331"
   width="1122.6667"
   xml:space="preserve"
   id="svg2"
   version="1.1"><metadata
     id="metadata8"><rdf:RDF><cc:Work
         rdf:about=""><dc:format>image/svg+xml</dc:format><dc:type
           rdf:resource="http://purl.org/dc/dcmitype/StillImage" /></cc:Work></rdf:RDF></metadata><defs
     id="defs6"><clipPath
       id="clipPath18"
       clipPathUnits="userSpaceOnUse"><path
         id="path16"
         d="M 4327,1965 H 6238 V 7939 H 4327 V 1965" /></clipPath><clipPath
       id="clipPath64"
       clipPathUnits="userSpaceOnUse"><path
         id="path62"
         d="M 7728,1965 H 9640 V 7939 H 7728 V 1965" /></clipPath><clipPath
       id="clipPath96"
       clipPathUnits="userSpaceOnUse"><path
         id="path94"
         d="M 0,0 H 14031 V 9921 H 0 V 0" /></clipPath><clipPath
       id="clipPath118"
       clipPathUnits="userSpaceOnUse"><path
         id="path116"
         d="M 0,0 H 14031 V 9921 H 0 V 0" /></clipPath><clipPath
       id="clipPath130"
       clipPathUnits="userSpaceOnUse"><path
         id="path128"
         d="M 0,0 H 14031 V 9921 H 0 V 0" /></clipPath></defs><g
     transform="matrix(0.08,0,0,-0.08,0,793.33333)"
     id="g10"><g
       id="g12"><g
         clip-path="url(#clipPath18)"
         id="g14"><path
           id="path20"
           style="fill:none;stroke:#000000;stroke-width:17;stroke-linecap:round;stroke-linejoin:round;stroke-miterlimit:10;stroke-dasharray:none;stroke-opacity:1"
           d="m 4971,4716 3,14 2,15 3,14 2,14 3,14 2,14 3,14 2,14 3,13 2,14 2,13 3,14 2,13 2,13 3,13 2,12 3,13 2,13 2,12 3,12 2,13 2,12 3,12 2,12 2,11 2,12 3,12 2,11 2,12 2,11 3,11 2,11 2,11 2,11 3,11 2,10 2,11 2,10 2,10 3,11 2,10 2,10 2,10 2,10 3,9 2,10 2,9 2,10 2,9 2,9 2,10 3,9 2,9 2,8 2,9 2,9 2,8 2,9 2,8 2,8 3,9 2,8 2,8 2,7" /><path
           id="path22"
           style="fill:none;stroke:#000000;stroke-width:17;stroke-linecap:round;stroke-linejoin:round;stroke-miterlimit:10;stroke-dasharray:none;stroke-opacity:1"
           d="m 5449,5424 2,-7 2,-8 2,-8 3,-9 2,-8 2,-8 2,-9 2,-8 2,-9 2,-9 2,-8 2,-9 3,-9 2,-10 2,-9 2,-9 2,-10 2,-9 2,-10 3,-9 2,-10 2,-10 2,-10 2,-10 3,-11 2,-10 2,-10 2,-11 2,-10 3,-11 2,-11 2,-11 2,-11 3,-11 2,-11 2,-12 2,-11 3,-12 2,-12 2,-11 2,-12 3,-12 2,-12 2,-13 3,-12 2,-12 2,-13 3,-13 2,-12 3,-13 2,-13 2,-13 3,-14 2,-13 2,-14 3,-13 2,-14 3,-14 2,-14 3,-14 2,-14 3,-14 2,-15 3,-14" /><path
           id="path24"
           style="fill:none;stroke:#000000;stroke-width:17;stroke-linecap:round;stroke-linejoin:round;stroke-miterlimit:10;stroke-dasharray:none;stroke-opacity:1"
           d="m 4649,3280 h 2 6 10 13 17 21 24 28 31 34 36 39 42 43 45 47 48 48 50 49 50 50 48 48 47 45 43 42 39 36 34 31 28 24 21 17 13 10 6 2" /><path
           id="path26"
           style="fill:none;stroke:#000000;stroke-width:17;stroke-linecap:round;stroke-linejoin:round;stroke-miterlimit:10;stroke-dasharray:none;stroke-opacity:1"
           d="m 5068,6995 h 2 5 9 13 15 19 21 23 25 27 27 29 28 27 27 25 23 21 19 15 13 9 5 2" /><path
           id="path28"
           style="fill:none;stroke:#000000;stroke-width:17;stroke-linecap:round;stroke-linejoin:round;stroke-miterlimit:10;stroke-dasharray:none;stroke-opacity:1"
           d="m 4479,2117 h 2 6 9 13 16 21 23 27 30 33 36 39 41 44 46 48 49 51 53 53 54 55 54 55 55 54 53 53 51 49 48 46 44 41 39 36 33 30 27 23 21 16 13 9 6 2" /><path
           id="path30"
           style="fill:none;stroke:#000000;stroke-width:17;stroke-linecap:round;stroke-linejoin:round;stroke-miterlimit:10;stroke-dasharray:none;stroke-opacity:1"
           d="m 5449,5424 h 306" /><path
           id="path32"
           style="fill:none;stroke:#000000;stroke-width:17;stroke-linecap:round;stroke-linejoin:round;stroke-miterlimit:10;stroke-dasharray:none;stroke-opacity:1"
           d="m 4810,5424 h 306" /><path
           id="path34"
           style="fill:none;stroke:#000000;stroke-width:17;stroke-linecap:round;stroke-linejoin:round;stroke-miterlimit:10;stroke-dasharray:none;stroke-opacity:1"
           d="M 5755,5424 V 4716 H 5594" /><path
           id="path36"
           style="fill:none;stroke:#000000;stroke-width:17;stroke-linecap:round;stroke-linejoin:round;stroke-miterlimit:10;stroke-dasharray:none;stroke-opacity:1"
           d="m 4810,5424 v -708 h 161" /><path
           id="path38"
           style="fill:none;stroke:#000000;stroke-width:17;stroke-linecap:round;stroke-linejoin:round;stroke-miterlimit:10;stroke-dasharray:none;stroke-opacity:1"
           d="M 5497,6995 5674,5424" /><path
           id="path40"
           style="fill:none;stroke:#000000;stroke-width:17;stroke-linecap:round;stroke-linejoin:round;stroke-miterlimit:10;stroke-dasharray:none;stroke-opacity:1"
           d="M 5754,4716 5916,3280" /><path
           id="path42"
           style="fill:none;stroke:#000000;stroke-width:17;stroke-linecap:round;stroke-linejoin:round;stroke-miterlimit:10;stroke-dasharray:none;stroke-opacity:1"
           d="M 5068,6995 4891,5424" /><path
           id="path44"
           style="fill:none;stroke:#000000;stroke-width:17;stroke-linecap:round;stroke-linejoin:round;stroke-miterlimit:10;stroke-dasharray:none;stroke-opacity:1"
           d="M 4811,4716 4649,3280" /><path
           id="path46"
           style="fill:none;stroke:#000000;stroke-width:17;stroke-linecap:round;stroke-linejoin:round;stroke-miterlimit:10;stroke-dasharray:none;stroke-opacity:1"
           d="M 5916,3280 6086,2117" /><path
           id="path48"
           style="fill:none;stroke:#000000;stroke-width:17;stroke-linecap:round;stroke-linejoin:round;stroke-miterlimit:10;stroke-dasharray:none;stroke-opacity:1"
           d="M 4649,3280 4479,2117" /><path
           id="path50"
           style="fill:none;stroke:#000000;stroke-width:17;stroke-linecap:round;stroke-linejoin:round;stroke-miterlimit:10;stroke-dasharray:none;stroke-opacity:1"
           d="m 5471,7606 26,-611" /><path
           id="path52"
           style="fill:none;stroke:#000000;stroke-width:17;stroke-linecap:round;stroke-linejoin:round;stroke-miterlimit:10;stroke-dasharray:none;stroke-opacity:1"
           d="m 5094,7606 -26,-611" /><g
           transform="rotate(-2.4168808,182750.2,-121433.54)"
           id="g54"><path
             id="path56"
             style="fill:none;stroke:#000000;stroke-width:17;stroke-linecap:round;stroke-linejoin:round;stroke-miterlimit:10;stroke-dasharray:none;stroke-opacity:1"
             d="M 188.82596,15.88469 C 180.26849,116.53909 93.46767,192.59225 -7.99159,188.33231 -109.45084,184.07236 -189.5,101.01371 -189.5,0" /></g></g></g><g
       id="g58"><g
         clip-path="url(#clipPath64)"
         id="g60"><path
           id="path66"
           style="fill:none;stroke:#000000;stroke-width:17;stroke-linecap:round;stroke-linejoin:round;stroke-miterlimit:10;stroke-dasharray:none;stroke-opacity:1"
           d="m 8050,3280 h 2 6 10 13 17 21 25 27 31 34 36 39 42 43 45 47 48 49 49 50 50 49 49 48 47 45 43 42 39 36 34 31 27 25 21 17 13 10 6 2" /><path
           id="path68"
           style="fill:none;stroke:#000000;stroke-width:17;stroke-linecap:round;stroke-linejoin:round;stroke-miterlimit:10;stroke-dasharray:none;stroke-opacity:1"
           d="m 8469,6995 h 2 6 9 12 16 18 21 24 25 26 28 28 28 28 26 25 24 21 18 16 12 9 6 2" /><path
           id="path70"
           style="fill:none;stroke:#000000;stroke-width:17;stroke-linecap:round;stroke-linejoin:round;stroke-miterlimit:10;stroke-dasharray:none;stroke-opacity:1"
           d="m 7880,2117 h 2 6 9 13 17 20 23 27 30 33 37 38 42 43 46 48 50 51 52 53 55 54 55 55 54 55 53 52 51 50 48 46 43 42 38 37 33 30 27 23 20 17 13 9 6 2" /><path
           id="path72"
           style="fill:none;stroke:#000000;stroke-width:17;stroke-linecap:round;stroke-linejoin:round;stroke-miterlimit:10;stroke-dasharray:none;stroke-opacity:1"
           d="m 8329,4716 v 708 h 710 v -708 h -710" /><path
           id="path74"
           style="fill:none;stroke:#000000;stroke-width:17;stroke-linecap:round;stroke-linejoin:round;stroke-miterlimit:10;stroke-dasharray:none;stroke-opacity:1"
           d="M 8899,6995 9318,3280" /><path
           id="path76"
           style="fill:none;stroke:#000000;stroke-width:17;stroke-linecap:round;stroke-linejoin:round;stroke-miterlimit:10;stroke-dasharray:none;stroke-opacity:1"
           d="M 8469,6995 8050,3280" /><path
           id="path78"
           style="fill:none;stroke:#000000;stroke-width:17;stroke-linecap:round;stroke-linejoin:round;stroke-miterlimit:10;stroke-dasharray:none;stroke-opacity:1"
           d="M 9318,3280 9488,2117" /><path
           id="path80"
           style="fill:none;stroke:#000000;stroke-width:17;stroke-linecap:round;stroke-linejoin:round;stroke-miterlimit:10;stroke-dasharray:none;stroke-opacity:1"
           d="M 8050,3280 7880,2117" /><path
           id="path82"
           style="fill:none;stroke:#000000;stroke-width:17;stroke-linecap:round;stroke-linejoin:round;stroke-miterlimit:10;stroke-dasharray:none;stroke-opacity:1"
           d="m 8873,7606 26,-611" /><path
           id="path84"
           style="fill:none;stroke:#000000;stroke-width:17;stroke-linecap:round;stroke-linejoin:round;stroke-miterlimit:10;stroke-dasharray:none;stroke-opacity:1"
           d="m 8495,7606 -26,-611" /><g
           transform="rotate(-92.416881,7984.5274,-363.58865)"
           id="g86"><path
             id="path88"
             style="fill:none;stroke:#000000;stroke-width:17;stroke-linecap:round;stroke-linejoin:round;stroke-miterlimit:10;stroke-dasharray:none;stroke-opacity:1"
             d="M -15.96895,187.82951 C -117.15734,179.3172 -193.61395,92.97443 -189.33142,-7.94941 -185.04887,-108.87326 -101.54959,-188.5 0,-188.5" /></g></g></g><g
       id="g90"><g
         clip-path="url(#clipPath96)"
         id="g92"><path
           id="path98"
           style="fill:none;stroke:#000000;stroke-width:9;stroke-linecap:round;stroke-linejoin:round;stroke-miterlimit:10;stroke-dasharray:none;stroke-opacity:1"
           d="m 9180,5425 h 991" /><path
           id="path100"
           style="fill:none;stroke:#000000;stroke-width:9;stroke-linecap:round;stroke-linejoin:round;stroke-miterlimit:10;stroke-dasharray:none;stroke-opacity:1"
           d="m 9180,4716 h 991" /><path
           id="path102"
           style="fill:none;stroke:#000000;stroke-width:9;stroke-linecap:round;stroke-linejoin:round;stroke-miterlimit:10;stroke-dasharray:none;stroke-opacity:1"
           d="M 10029,5189 V 4952" /><g
           id="g104"><path
             id="path106"
             style="fill:#000000;fill-opacity:1;fill-rule:nonzero;stroke:#000000;stroke-width:12.5;stroke-linecap:round;stroke-linejoin:miter;stroke-miterlimit:10;stroke-dasharray:none;stroke-opacity:1"
             d="m 9990,5189 h 79 l -40,236 z" /></g><g
           id="g108"><path
             id="path110"
             style="fill:#000000;fill-opacity:1;fill-rule:nonzero;stroke:#000000;stroke-width:12.5;stroke-linecap:round;stroke-linejoin:miter;stroke-miterlimit:10;stroke-dasharray:none;stroke-opacity:1"
             d="m 9990,4952 h 79 l -40,-236 z" /></g></g></g><g
       id="g112"><g
         clip-path="url(#clipPath118)"
         id="g114"><text
           id="text122"
           style="font-variant:normal;font-weight:normal;font-size:329.99099731px;font-family:Arial;-inkscape-font-specification:ArialMT;writing-mode:lr-tb;fill:#000000;fill-opacity:1;fill-rule:nonzero;stroke:none"
           transform="matrix(0,1,1,0,9931,4785)"><tspan
             id="tspan120"
             y="0"
             x="0 183.47499 366.94998">150</tspan></text>
</g></g><g
       id="g124"><g
         clip-path="url(#clipPath130)"
         id="g126"><path
           id="path132"
           style="fill:none;stroke:#000000;stroke-width:9;stroke-linecap:round;stroke-linejoin:round;stroke-miterlimit:10;stroke-dasharray:none;stroke-opacity:1"
           d="m 9629,2118 h 541" /><path
           id="path134"
           style="fill:none;stroke:#000000;stroke-width:9;stroke-linecap:round;stroke-linejoin:round;stroke-miterlimit:10;stroke-dasharray:none;stroke-opacity:1"
           d="m 9180,4716 h 990" /><path
           id="path136"
           style="fill:none;stroke:#000000;stroke-width:9;stroke-linecap:round;stroke-linejoin:round;stroke-miterlimit:10;stroke-dasharray:none;stroke-opacity:1"
           d="M 10029,2354 V 4480" /><g
           id="g138"><path
             id="path140"
             style="fill:#000000;fill-opacity:1;fill-rule:nonzero;stroke:#000000;stroke-width:12.5;stroke-linecap:round;stroke-linejoin:miter;stroke-miterlimit:10;stroke-dasharray:none;stroke-opacity:1"
             d="m 9989,2354 h 79 l -39,-236 z" /></g><g
           id="g142"><path
             id="path144"
             style="fill:#000000;fill-opacity:1;fill-rule:nonzero;stroke:#000000;stroke-width:12.5;stroke-linecap:round;stroke-linejoin:miter;stroke-miterlimit:10;stroke-dasharray:none;stroke-opacity:1"
             d="m 9989,4480 h 79 l -39,236 z" /></g><text
           id="text148"
           style="font-variant:normal;font-weight:normal;font-size:329.99099731px;font-family:Arial;-inkscape-font-specification:ArialMT;writing-mode:lr-tb;fill:#000000;fill-opacity:1;fill-rule:nonzero;stroke:none"
           transform="matrix(0,1,1,0,9930,3143)"><tspan
             id="tspan146"
             y="0"
             x="0 183.47499 366.94998">550</tspan></text>
<path
           id="path150"
           style="fill:none;stroke:#000000;stroke-width:9;stroke-linecap:round;stroke-linejoin:round;stroke-miterlimit:10;stroke-dasharray:none;stroke-opacity:1"
           d="m 9180,5425 h 992" /><path
           id="path152"
           style="fill:none;stroke:#000000;stroke-width:9;stroke-linecap:round;stroke-linejoin:round;stroke-miterlimit:10;stroke-dasharray:none;stroke-opacity:1"
           d="m 8826,7787 h 1346" /><path
           id="path154"
           style="fill:none;stroke:#000000;stroke-width:9;stroke-linecap:round;stroke-linejoin:round;stroke-miterlimit:10;stroke-dasharray:none;stroke-opacity:1"
           d="M 10030,5661 V 7551" /><g
           id="g156"><path
             id="path158"
             style="fill:#000000;fill-opacity:1;fill-rule:nonzero;stroke:#000000;stroke-width:12.5;stroke-linecap:round;stroke-linejoin:miter;stroke-miterlimit:10;stroke-dasharray:none;stroke-opacity:1"
             d="m 9991,5661 h 79 l -40,-236 z" /></g><g
           id="g160"><path
             id="path162"
             style="fill:#000000;fill-opacity:1;fill-rule:nonzero;stroke:#000000;stroke-width:12.5;stroke-linecap:round;stroke-linejoin:miter;stroke-miterlimit:10;stroke-dasharray:none;stroke-opacity:1"
             d="m 9991,7551 h 79 l -40,236 z" /></g><text
           id="text166"
           style="font-variant:normal;font-weight:normal;font-size:329.99099731px;font-family:Arial;-inkscape-font-specification:ArialMT;writing-mode:lr-tb;fill:#000000;fill-opacity:1;fill-rule:nonzero;stroke:none"
           transform="matrix(0,1,1,0,9932,6332)"><tspan
             id="tspan164"
             y="0"
             x="0 183.47499 366.94998">500</tspan></text>
<path
           id="path168"
           style="fill:none;stroke:#000000;stroke-width:9;stroke-linecap:round;stroke-linejoin:round;stroke-miterlimit:10;stroke-dasharray:none;stroke-opacity:1"
           d="M 8330,4574 V 4078" /><path
           id="path170"
           style="fill:none;stroke:#000000;stroke-width:9;stroke-linecap:round;stroke-linejoin:round;stroke-miterlimit:10;stroke-dasharray:none;stroke-opacity:1"
           d="M 9038,4574 V 4078" /><path
           id="path172"
           style="fill:none;stroke:#000000;stroke-width:9;stroke-linecap:round;stroke-linejoin:round;stroke-miterlimit:10;stroke-dasharray:none;stroke-opacity:1"
           d="m 8566,4220 h 236" /><g
           id="g174"><path
             id="path176"
             style="fill:#000000;fill-opacity:1;fill-rule:nonzero;stroke:#000000;stroke-width:12.5;stroke-linecap:round;stroke-linejoin:miter;stroke-miterlimit:10;stroke-dasharray:none;stroke-opacity:1"
             d="m 8566,4259 v -78 l -236,39 z" /></g><g
           id="g178"><path
             id="path180"
             style="fill:#000000;fill-opacity:1;fill-rule:nonzero;stroke:#000000;stroke-width:12.5;stroke-linecap:round;stroke-linejoin:miter;stroke-miterlimit:10;stroke-dasharray:none;stroke-opacity:1"
             d="m 8802,4259 v -78 l 236,39 z" /></g><text
           id="text184"
           style="font-variant:normal;font-weight:normal;font-size:329.99099731px;font-family:Arial;-inkscape-font-specification:ArialMT;writing-mode:lr-tb;fill:#000000;fill-opacity:1;fill-rule:nonzero;stroke:none"
           transform="matrix(1,0,0,-1,8399,4319)"><tspan
             id="tspan182"
             y="0"
             x="0 183.47499 366.94998">150</tspan></text>
<path
           id="path186"
           style="fill:none;stroke:#000000;stroke-width:9;stroke-linecap:round;stroke-linejoin:round;stroke-miterlimit:10;stroke-dasharray:none;stroke-opacity:1"
           d="M 4810,4574 V 4078" /><path
           id="path188"
           style="fill:none;stroke:#000000;stroke-width:9;stroke-linecap:round;stroke-linejoin:round;stroke-miterlimit:10;stroke-dasharray:none;stroke-opacity:1"
           d="M 5755,4574 V 4078" /><path
           id="path190"
           style="fill:none;stroke:#000000;stroke-width:9;stroke-linecap:round;stroke-linejoin:round;stroke-miterlimit:10;stroke-dasharray:none;stroke-opacity:1"
           d="m 5046,4220 h 473" /><g
           id="g192"><path
             id="path194"
             style="fill:#000000;fill-opacity:1;fill-rule:nonzero;stroke:#000000;stroke-width:12.5;stroke-linecap:round;stroke-linejoin:miter;stroke-miterlimit:10;stroke-dasharray:none;stroke-opacity:1"
             d="m 5046,4259 v -78 l -236,39 z" /></g><g
           id="g196"><path
             id="path198"
             style="fill:#000000;fill-opacity:1;fill-rule:nonzero;stroke:#000000;stroke-width:12.5;stroke-linecap:round;stroke-linejoin:miter;stroke-miterlimit:10;stroke-dasharray:none;stroke-opacity:1"
             d="m 5519,4259 v -78 l 236,39 z" /></g><text
           id="text202"
           style="font-variant:normal;font-weight:normal;font-size:329.99099731px;font-family:Arial;-inkscape-font-specification:ArialMT;writing-mode:lr-tb;fill:#000000;fill-opacity:1;fill-rule:nonzero;stroke:none"
           transform="matrix(1,0,0,-1,5010,4319)"><tspan
             id="tspan200"
             y="0"
             x="0 183.47499 366.94998">200</tspan></text>
<path
           id="path204"
           style="fill:none;stroke:#000000;stroke-width:9;stroke-linecap:round;stroke-linejoin:round;stroke-miterlimit:10;stroke-dasharray:none;stroke-opacity:1"
           d="M 4479,1976 V 1480" /><path
           id="path206"
           style="fill:none;stroke:#000000;stroke-width:9;stroke-linecap:round;stroke-linejoin:round;stroke-miterlimit:10;stroke-dasharray:none;stroke-opacity:1"
           d="M 6085,1976 V 1480" /><path
           id="path208"
           style="fill:none;stroke:#000000;stroke-width:9;stroke-linecap:round;stroke-linejoin:round;stroke-miterlimit:10;stroke-dasharray:none;stroke-opacity:1"
           d="M 4715,1622 H 5849" /><g
           id="g210"><path
             id="path212"
             style="fill:#000000;fill-opacity:1;fill-rule:nonzero;stroke:#000000;stroke-width:12.5;stroke-linecap:round;stroke-linejoin:miter;stroke-miterlimit:10;stroke-dasharray:none;stroke-opacity:1"
             d="m 4715,1661 v -79 l -236,40 z" /></g><g
           id="g214"><path
             id="path216"
             style="fill:#000000;fill-opacity:1;fill-rule:nonzero;stroke:#000000;stroke-width:12.5;stroke-linecap:round;stroke-linejoin:miter;stroke-miterlimit:10;stroke-dasharray:none;stroke-opacity:1"
             d="m 5849,1661 v -79 l 236,40 z" /></g><text
           id="text220"
           style="font-variant:normal;font-weight:normal;font-size:329.99099731px;font-family:Arial;-inkscape-font-specification:ArialMT;writing-mode:lr-tb;fill:#000000;fill-opacity:1;fill-rule:nonzero;stroke:none"
           transform="matrix(1,0,0,-1,5008,1720)"><tspan
             id="tspan218"
             y="0"
             x="0 183.47499 366.94998">340</tspan></text>
<path
           id="path222"
           style="fill:none;stroke:#000000;stroke-width:9;stroke-linecap:round;stroke-linejoin:round;stroke-miterlimit:10;stroke-dasharray:none;stroke-opacity:1"
           d="M 7881,1976 V 1480" /><path
           id="path224"
           style="fill:none;stroke:#000000;stroke-width:9;stroke-linecap:round;stroke-linejoin:round;stroke-miterlimit:10;stroke-dasharray:none;stroke-opacity:1"
           d="M 9487,1976 V 1480" /><path
           id="path226"
           style="fill:none;stroke:#000000;stroke-width:9;stroke-linecap:round;stroke-linejoin:round;stroke-miterlimit:10;stroke-dasharray:none;stroke-opacity:1"
           d="M 8117,1622 H 9251" /><g
           id="g228"><path
             id="path230"
             style="fill:#000000;fill-opacity:1;fill-rule:nonzero;stroke:#000000;stroke-width:12.5;stroke-linecap:round;stroke-linejoin:miter;stroke-miterlimit:10;stroke-dasharray:none;stroke-opacity:1"
             d="m 8117,1661 v -79 l -236,40 z" /></g><g
           id="g232"><path
             id="path234"
             style="fill:#000000;fill-opacity:1;fill-rule:nonzero;stroke:#000000;stroke-width:12.5;stroke-linecap:round;stroke-linejoin:miter;stroke-miterlimit:10;stroke-dasharray:none;stroke-opacity:1"
             d="m 9251,1661 v -79 l 236,40 z" /></g><text
           id="text238"
           style="font-variant:normal;font-weight:normal;font-size:329.99099731px;font-family:Arial;-inkscape-font-specification:ArialMT;writing-mode:lr-tb;fill:#000000;fill-opacity:1;fill-rule:nonzero;stroke:none"
           transform="matrix(1,0,0,-1,8410,1720)"><tspan
             id="tspan236"
             y="0"
             x="0 183.47499 366.94998">340</tspan></text>
<path
           id="path240"
           style="fill:none;stroke:#000000;stroke-width:9;stroke-linecap:round;stroke-linejoin:round;stroke-miterlimit:10;stroke-dasharray:none;stroke-opacity:1"
           d="M 8542,7787 H 7054" /><path
           id="path242"
           style="fill:none;stroke:#000000;stroke-width:9;stroke-linecap:round;stroke-linejoin:round;stroke-miterlimit:10;stroke-dasharray:none;stroke-opacity:1"
           d="M 9345,2118 H 7054" /><path
           id="path244"
           style="fill:none;stroke:#000000;stroke-width:9;stroke-linecap:round;stroke-linejoin:round;stroke-miterlimit:10;stroke-dasharray:none;stroke-opacity:1"
           d="M 7196,7551 V 2354" /><g
           id="g246"><path
             id="path248"
             style="fill:#000000;fill-opacity:1;fill-rule:nonzero;stroke:#000000;stroke-width:12.5;stroke-linecap:round;stroke-linejoin:miter;stroke-miterlimit:10;stroke-dasharray:none;stroke-opacity:1"
             d="m 7157,7551 h 78 l -39,236 z" /></g><g
           id="g250"><path
             id="path252"
             style="fill:#000000;fill-opacity:1;fill-rule:nonzero;stroke:#000000;stroke-width:12.5;stroke-linecap:round;stroke-linejoin:miter;stroke-miterlimit:10;stroke-dasharray:none;stroke-opacity:1"
             d="m 7157,2354 h 78 l -39,-236 z" /></g><text
           id="text256"
           style="font-variant:normal;font-weight:normal;font-size:329.99099731px;font-family:Arial;-inkscape-font-specification:ArialMT;writing-mode:lr-tb;fill:#000000;fill-opacity:1;fill-rule:nonzero;stroke:none"
           transform="matrix(0,1,1,0,7097,4575)"><tspan
             id="tspan254"
             y="0"
             x="0 183.47499 366.94998 550.42499">1200</tspan></text>
</g></g></g></svg>